<mxfile host="app.diagrams.net" agent="Mozilla/5.0 (Macintosh; Intel Mac OS X 10_15_7) AppleWebKit/537.36 (KHTML, like Gecko) Chrome/139.0.0.0 Safari/537.36" version="28.2.5">
  <diagram name="Page-1" id="6w3Nn8mPZokH5K6b7TAQ">
    <mxGraphModel dx="496" dy="371" grid="1" gridSize="10" guides="1" tooltips="1" connect="1" arrows="1" fold="1" page="1" pageScale="1" pageWidth="827" pageHeight="1169" math="0" shadow="0">
      <root>
        <mxCell id="0" />
        <mxCell id="1" parent="0" />
        <mxCell id="zOuMPL_r7VEr6dwzE8yM-19" value="" style="rounded=0;whiteSpace=wrap;html=1;strokeColor=none;" parent="1" vertex="1">
          <mxGeometry x="400" y="574" width="160" height="75" as="geometry" />
        </mxCell>
        <mxCell id="OOeiIcqSMya32nPRaJqt-1" value="&lt;font style=&quot;font-size: 11px;&quot;&gt;Control Plane&lt;/font&gt;" style="rounded=1;whiteSpace=wrap;html=1;fillColor=#dae8fc;strokeColor=#6c8ebf;verticalAlign=top;fontFamily=Verdana;arcSize=9;" parent="1" vertex="1">
          <mxGeometry x="290" y="460" width="90" height="210" as="geometry" />
        </mxCell>
        <mxCell id="OOeiIcqSMya32nPRaJqt-29" value="" style="aspect=fixed;sketch=0;html=1;dashed=0;whitespace=wrap;verticalLabelPosition=bottom;verticalAlign=top;fillColor=#2875E2;strokeColor=#ffffff;points=[[0.005,0.63,0],[0.1,0.2,0],[0.9,0.2,0],[0.5,0,0],[0.995,0.63,0],[0.72,0.99,0],[0.5,1,0],[0.28,0.99,0]];shape=mxgraph.kubernetes.icon2;kubernetesLabel=1;prIcon=api;rounded=1;" parent="1" vertex="1">
          <mxGeometry x="310" y="490" width="50" height="48" as="geometry" />
        </mxCell>
        <mxCell id="OOeiIcqSMya32nPRaJqt-30" value="" style="aspect=fixed;sketch=0;html=1;dashed=0;whitespace=wrap;verticalLabelPosition=bottom;verticalAlign=top;fillColor=#2875E2;strokeColor=#ffffff;points=[[0.005,0.63,0],[0.1,0.2,0],[0.9,0.2,0],[0.5,0,0],[0.995,0.63,0],[0.72,0.99,0],[0.5,1,0],[0.28,0.99,0]];shape=mxgraph.kubernetes.icon2;kubernetesLabel=1;prIcon=c_m;rounded=1;" parent="1" vertex="1">
          <mxGeometry x="310" y="550" width="50" height="48" as="geometry" />
        </mxCell>
        <mxCell id="OOeiIcqSMya32nPRaJqt-31" value="" style="aspect=fixed;sketch=0;html=1;dashed=0;whitespace=wrap;verticalLabelPosition=bottom;verticalAlign=top;fillColor=#2875E2;strokeColor=#ffffff;points=[[0.005,0.63,0],[0.1,0.2,0],[0.9,0.2,0],[0.5,0,0],[0.995,0.63,0],[0.72,0.99,0],[0.5,1,0],[0.28,0.99,0]];shape=mxgraph.kubernetes.icon2;kubernetesLabel=1;prIcon=sched;rounded=1;" parent="1" vertex="1">
          <mxGeometry x="310" y="610" width="50" height="48" as="geometry" />
        </mxCell>
        <mxCell id="zOuMPL_r7VEr6dwzE8yM-4" value="" style="ellipse;whiteSpace=wrap;html=1;aspect=fixed;fontSize=8;fillColor=#fff2cc;strokeColor=#d6b656;" parent="1" vertex="1">
          <mxGeometry x="350" y="518" width="20" height="20" as="geometry" />
        </mxCell>
        <mxCell id="zOuMPL_r7VEr6dwzE8yM-5" value="&lt;div&gt;&lt;br&gt;&lt;/div&gt;&lt;div&gt;&lt;br&gt;&lt;/div&gt;&amp;nbsp; -&amp;nbsp; &amp;nbsp;API CA listener, can&lt;div&gt;&amp;nbsp; &amp;nbsp; &amp;nbsp; recognize client TLS certificate&lt;/div&gt;&lt;div&gt;&amp;nbsp; &amp;nbsp; &amp;nbsp; signed by Aggregator CA&lt;/div&gt;" style="ellipse;html=1;aspect=fixed;fontSize=8;fillColor=#f8cecc;strokeColor=#b85450;labelPosition=right;verticalLabelPosition=middle;align=left;verticalAlign=middle;dashed=1;" parent="1" vertex="1">
          <mxGeometry x="410" y="579" width="20" height="20" as="geometry" />
        </mxCell>
        <mxCell id="zOuMPL_r7VEr6dwzE8yM-6" value="" style="ellipse;whiteSpace=wrap;html=1;aspect=fixed;fontSize=8;fillColor=#f8cecc;strokeColor=#b85450;dashed=1;" parent="1" vertex="1">
          <mxGeometry x="350" y="570" width="20" height="20" as="geometry" />
        </mxCell>
        <mxCell id="zOuMPL_r7VEr6dwzE8yM-7" value="" style="ellipse;whiteSpace=wrap;html=1;aspect=fixed;fontSize=8;fillColor=#f8cecc;strokeColor=#b85450;dashed=1;" parent="1" vertex="1">
          <mxGeometry x="350" y="629" width="20" height="20" as="geometry" />
        </mxCell>
        <mxCell id="zOuMPL_r7VEr6dwzE8yM-12" value="&amp;nbsp; -&amp;nbsp; &amp;nbsp;clientAuth flag" style="ellipse;html=1;aspect=fixed;fontSize=8;fillColor=#fff2cc;strokeColor=#d6b656;labelPosition=right;verticalLabelPosition=middle;align=left;verticalAlign=middle;" parent="1" vertex="1">
          <mxGeometry x="410" y="617" width="20" height="20" as="geometry" />
        </mxCell>
        <mxCell id="Agkv-vm6Fi2D6QT-RCuS-1" value="There is no listeners for this CA, so no serverAuth certificates used. Almost every TLS listener in the cluster should recognize client TLS certificate signed with this CA and then follow the &lt;br&gt;&quot;impersonation&quot; behavior." style="whiteSpace=wrap;html=1;fontSize=9;spacing=6;strokeColor=none;" vertex="1" parent="1">
          <mxGeometry x="390" y="469" width="140" height="90" as="geometry" />
        </mxCell>
        <mxCell id="Agkv-vm6Fi2D6QT-RCuS-2" value="" style="ellipse;html=1;aspect=fixed;fontSize=8;fillColor=#f8cecc;strokeColor=#b85450;labelPosition=right;verticalLabelPosition=middle;align=left;verticalAlign=middle;dashed=1;" vertex="1" parent="1">
          <mxGeometry x="350" y="498" width="20" height="20" as="geometry" />
        </mxCell>
      </root>
    </mxGraphModel>
  </diagram>
</mxfile>
